<svg width="48" height="55" viewBox="0 0 48 55" fill="none" xmlns="http://www.w3.org/2000/svg">
<path opacity="0.99" fill-rule="evenodd" clip-rule="evenodd" d="M26.197 1.33117C25.0296 0.715783 23.6338 0.715783 22.4665 1.33117L16.1347 4.66892C14.8218 5.36102 14 6.72319 14 8.20738V16.3485C14 17.8327 14.8218 19.1949 16.1347 19.887L22.4665 23.2247C23.6338 23.8401 25.0296 23.8401 26.197 23.2247L32.5288 19.887C33.8417 19.1949 34.6635 17.8327 34.6635 16.3485V8.20738C34.6635 6.7232 33.8417 5.36102 32.5288 4.66892L26.197 1.33117ZM26.5051 8.17202C25.1777 7.49871 23.5701 7.49871 22.2427 8.17202C20.7004 8.95433 19.7056 10.5486 19.7056 12.278C19.7056 14.0073 20.7004 15.6016 22.2427 16.3839C23.5701 17.0572 25.1777 17.0572 26.5051 16.3839C28.0473 15.6016 29.0422 14.0073 29.0422 12.278C29.0422 10.5486 28.0473 8.95433 26.5051 8.17202Z" fill="white"/>
<path d="M26.5 54.5V27L39.5 21.5V3L48 28.5L35 33.5V54.5H26.5Z" fill="white"/>
<path d="M23 54.5V26.733L9.09302 21.1796V2.5L0 28.2476L13.7674 33.3544V54.5H23Z" fill="white"/>
</svg>
